<?xml version="1.0" standalone="no"?><!DOCTYPE svg PUBLIC "-//W3C//DTD SVG 1.1//EN" "http://www.w3.org/Graphics/SVG/1.1/DTD/svg11.dtd"><svg t="1717845743697" class="icon" viewBox="0 0 1024 1024" version="1.1" xmlns="http://www.w3.org/2000/svg" p-id="5372" xmlns:xlink="http://www.w3.org/1999/xlink" width="200" height="200"><path d="M453.485714 336.457143m-336.457143 0a336.457143 336.457143 0 1 0 672.914286 0 336.457143 336.457143 0 1 0-672.914286 0Z" fill="#8CF6FB" p-id="5373"></path><path d="M819.2 1024H204.8c-48.274286 0-87.771429-39.497143-87.771429-87.771429V87.771429c0-48.274286 39.497143-87.771429 87.771429-87.771429h614.4c48.274286 0 87.771429 39.497143 87.771429 87.771429v848.457142c0 48.274286-39.497143 87.771429-87.771429 87.771429z m14.628571-936.228571c0-8.777143-5.851429-14.628571-14.628571-14.628572H204.8c-8.777143 0-14.628571 5.851429-14.628571 14.628572v599.771428h643.657142V87.771429z m0 672.914285H190.171429v175.542857c0 8.777143 5.851429 14.628571 14.628571 14.628572h614.4c8.777143 0 14.628571-5.851429 14.628571-14.628572V760.685714z" fill="#3C2DCB" p-id="5374"></path><path d="M512 848.457143m-58.514286 0a58.514286 58.514286 0 1 0 117.028572 0 58.514286 58.514286 0 1 0-117.028572 0Z" fill="#D098FF" p-id="5375"></path></svg>